<svg xmlns="http://www.w3.org/2000/svg" width="200" height="200" viewBox="0 0 200 200" version="1.1"><path d="M 68.082 49 C 52.201 49.371, 46.557 49.823, 46.249 50.750 C 46.020 51.438, 45.236 52, 44.506 52 C 42.216 52, 33.109 59.867, 30.362 64.218 C 27.602 68.591, 26.507 71.875, 25.602 78.500 C 25.302 80.700, 24.871 83.400, 24.645 84.500 C 24.182 86.753, 22.859 96.201, 22.475 100 C 22.336 101.375, 21.509 107.225, 20.637 113 C 19.765 118.775, 18.826 125.525, 18.551 128 C 18.275 130.475, 17.820 133.650, 17.540 135.057 C 15.697 144.313, 16.599 152.224, 20.051 157.071 C 24.668 163.555, 36.746 167.057, 44.304 164.104 C 46.650 163.187, 52.818 158.112, 57.387 153.337 C 57.999 152.698, 61.165 149.435, 64.422 146.087 L 70.344 140 99.828 140 L 129.311 140 140.206 150.749 C 153.941 164.298, 155.090 164.970, 164.745 165.082 C 172.137 165.168, 178.136 160.895, 181.527 153.128 C 183.724 148.097, 183.684 142.248, 181.344 126.500 C 181.017 124.300, 180.626 121.600, 180.475 120.500 C 179.290 111.843, 178.840 108.693, 177.978 103 C 177.015 96.649, 176.466 92.605, 175.464 84.500 C 174.769 78.877, 172.910 71.041, 171.429 67.489 C 167.943 59.132, 156.649 50.735, 146.980 49.312 C 142.683 48.680, 90.615 48.474, 68.082 49 M 48.039 61.139 C 43.955 62.352, 37.328 67.359, 36.590 69.791 C 36.305 70.731, 35.835 72.850, 35.546 74.500 C 35.257 76.150, 34.844 78.400, 34.627 79.500 C 34.411 80.600, 33.904 83.975, 33.500 87 C 32.723 92.822, 32.590 93.613, 31.056 101.500 C 30.521 104.250, 29.872 108.075, 29.614 110 C 27.792 123.576, 27.332 126.377, 26.497 129.009 C 21.286 145.429, 36.212 156.834, 49.671 146.716 C 52.024 144.947, 57.223 140.469, 61.224 136.765 L 68.500 130.029 99.126 130.015 L 129.753 130 133.855 133.750 C 154.318 152.455, 154.444 152.546, 160.433 152.856 C 166.804 153.186, 171.824 150.026, 174.305 144.126 C 175.820 140.524, 175.823 140.553, 170.504 110 C 169.595 104.775, 168.659 99.263, 168.425 97.750 C 167.459 91.499, 167.062 89.216, 165.952 83.500 C 165.312 80.200, 164.682 76.600, 164.554 75.500 C 163.887 69.780, 158.501 63.517, 152.453 61.428 C 148.260 59.979, 52.834 59.716, 48.039 61.139 M 50.817 69.042 C 46.626 70.033, 43.524 76.730, 42.500 87 C 42.325 88.753, 40.919 97.598, 40.353 100.500 C 40.139 101.600, 39.729 104.075, 39.443 106 C 39.156 107.925, 38.704 110.625, 38.438 112 C 38.172 113.375, 37.763 115.625, 37.529 117 C 37.295 118.375, 36.425 123.453, 35.596 128.284 C 33.928 138, 34.091 139.175, 37.341 140.915 C 40.544 142.629, 43.717 141.129, 50.740 134.582 C 61.663 124.397, 63.479 123.003, 67 122.094 C 68.925 121.597, 84.450 121.260, 101.500 121.345 C 127.272 121.474, 132.856 121.753, 134.612 123 C 137.706 125.198, 147.580 133.788, 153.291 139.250 C 158.131 143.879, 161.687 145.126, 164.651 143.235 C 166.322 142.168, 166.991 136.433, 165.878 132.711 C 165.350 130.945, 164.720 127.925, 164.478 126 C 164.236 124.075, 163.760 120.925, 163.420 119 C 163.081 117.075, 162.640 114.375, 162.440 113 C 162.240 111.625, 161.365 106.675, 160.495 102 C 158.655 92.110, 156.043 76.819, 156.017 75.790 C 155.978 74.171, 150.303 69.963, 147.511 69.483 C 143.390 68.775, 53.679 68.366, 50.817 69.042 M 64.130 73.790 C 63.449 74.017, 63 76.680, 63 80.500 L 63 86.833 57.750 86.837 C 46.936 86.845, 47.867 86.220, 48.202 93.250 L 48.500 99.500 55.500 100 L 62.500 100.500 62.799 106.793 L 63.098 113.086 70.299 112.793 L 77.500 112.500 77.457 106.752 C 77.407 100.169, 77.710 99.930, 85.700 100.235 C 88.560 100.344, 91.171 100.163, 91.501 99.832 C 92.019 99.315, 92.391 92.065, 92.097 88.250 C 92.029 87.378, 89.882 87, 85 87 C 79.041 87, 77.984 86.740, 77.892 85.250 C 77.833 84.287, 77.656 81.925, 77.500 80 C 77.344 78.075, 77.165 75.825, 77.103 75 C 77.018 73.855, 75.601 73.490, 71.126 73.457 C 67.900 73.433, 64.752 73.583, 64.130 73.790 M 120.500 75.189 C 115.861 77.930, 114.530 81.306, 116.195 86.112 C 118.581 93.002, 132.959 92.140, 134.345 85.024 C 134.934 81.993, 132.502 76.423, 130.173 75.471 C 126.940 74.150, 122.480 74.020, 120.500 75.189 M 139.480 96.850 C 133.587 98.746, 131.440 103.399, 133.797 109.164 C 135.599 113.574, 142.725 114.951, 147.733 111.856 C 152.585 108.857, 152.587 102.967, 147.738 98.750 C 144.549 95.977, 143.174 95.661, 139.480 96.850" stroke="none" fill="#f8f8fa" fill-rule="evenodd"/><path d="M -0 100.005 L -0 200.010 100.250 199.755 L 200.500 199.500 200.755 99.750 L 201.010 0 100.505 0 L 0 0 -0 100.005 M 0.481 100.500 C 0.481 155.500, 0.602 178.147, 0.750 150.826 C 0.898 123.506, 0.898 78.506, 0.750 50.826 C 0.602 23.147, 0.481 45.500, 0.481 100.500 M 68.082 49 C 52.201 49.371, 46.557 49.823, 46.249 50.750 C 46.020 51.438, 45.236 52, 44.506 52 C 42.216 52, 33.109 59.867, 30.362 64.218 C 27.602 68.591, 26.507 71.875, 25.602 78.500 C 25.302 80.700, 24.871 83.400, 24.645 84.500 C 24.182 86.753, 22.859 96.201, 22.475 100 C 22.336 101.375, 21.509 107.225, 20.637 113 C 19.765 118.775, 18.826 125.525, 18.551 128 C 18.275 130.475, 17.820 133.650, 17.540 135.057 C 15.697 144.313, 16.599 152.224, 20.051 157.071 C 24.668 163.555, 36.746 167.057, 44.304 164.104 C 46.650 163.187, 52.818 158.112, 57.387 153.337 C 57.999 152.698, 61.165 149.435, 64.422 146.087 L 70.344 140 99.828 140 L 129.311 140 140.206 150.749 C 153.941 164.298, 155.090 164.970, 164.745 165.082 C 172.137 165.168, 178.136 160.895, 181.527 153.128 C 183.724 148.097, 183.684 142.248, 181.344 126.500 C 181.017 124.300, 180.626 121.600, 180.475 120.500 C 179.290 111.843, 178.840 108.693, 177.978 103 C 177.015 96.649, 176.466 92.605, 175.464 84.500 C 174.769 78.877, 172.910 71.041, 171.429 67.489 C 167.943 59.132, 156.649 50.735, 146.980 49.312 C 142.683 48.680, 90.615 48.474, 68.082 49 M 48.039 61.139 C 43.955 62.352, 37.328 67.359, 36.590 69.791 C 36.305 70.731, 35.835 72.850, 35.546 74.500 C 35.257 76.150, 34.844 78.400, 34.627 79.500 C 34.411 80.600, 33.904 83.975, 33.500 87 C 32.723 92.822, 32.590 93.613, 31.056 101.500 C 30.521 104.250, 29.872 108.075, 29.614 110 C 27.792 123.576, 27.332 126.377, 26.497 129.009 C 21.286 145.429, 36.212 156.834, 49.671 146.716 C 52.024 144.947, 57.223 140.469, 61.224 136.765 L 68.500 130.029 99.126 130.015 L 129.753 130 133.855 133.750 C 154.318 152.455, 154.444 152.546, 160.433 152.856 C 166.804 153.186, 171.824 150.026, 174.305 144.126 C 175.820 140.524, 175.823 140.553, 170.504 110 C 169.595 104.775, 168.659 99.263, 168.425 97.750 C 167.459 91.499, 167.062 89.216, 165.952 83.500 C 165.312 80.200, 164.682 76.600, 164.554 75.500 C 163.887 69.780, 158.501 63.517, 152.453 61.428 C 148.260 59.979, 52.834 59.716, 48.039 61.139 M 50.817 69.042 C 46.626 70.033, 43.524 76.730, 42.500 87 C 42.325 88.753, 40.919 97.598, 40.353 100.500 C 40.139 101.600, 39.729 104.075, 39.443 106 C 39.156 107.925, 38.704 110.625, 38.438 112 C 38.172 113.375, 37.763 115.625, 37.529 117 C 37.295 118.375, 36.425 123.453, 35.596 128.284 C 33.928 138, 34.091 139.175, 37.341 140.915 C 40.544 142.629, 43.717 141.129, 50.740 134.582 C 61.663 124.397, 63.479 123.003, 67 122.094 C 68.925 121.597, 84.450 121.260, 101.500 121.345 C 127.272 121.474, 132.856 121.753, 134.612 123 C 137.706 125.198, 147.580 133.788, 153.291 139.250 C 158.131 143.879, 161.687 145.126, 164.651 143.235 C 166.322 142.168, 166.991 136.433, 165.878 132.711 C 165.350 130.945, 164.720 127.925, 164.478 126 C 164.236 124.075, 163.760 120.925, 163.420 119 C 163.081 117.075, 162.640 114.375, 162.440 113 C 162.240 111.625, 161.365 106.675, 160.495 102 C 158.655 92.110, 156.043 76.819, 156.017 75.790 C 155.978 74.171, 150.303 69.963, 147.511 69.483 C 143.390 68.775, 53.679 68.366, 50.817 69.042 M 64.130 73.790 C 63.449 74.017, 63 76.680, 63 80.500 L 63 86.833 57.750 86.837 C 46.936 86.845, 47.867 86.220, 48.202 93.250 L 48.500 99.500 55.500 100 L 62.500 100.500 62.799 106.793 L 63.098 113.086 70.299 112.793 L 77.500 112.500 77.457 106.752 C 77.407 100.169, 77.710 99.930, 85.700 100.235 C 88.560 100.344, 91.171 100.163, 91.501 99.832 C 92.019 99.315, 92.391 92.065, 92.097 88.250 C 92.029 87.378, 89.882 87, 85 87 C 79.041 87, 77.984 86.740, 77.892 85.250 C 77.833 84.287, 77.656 81.925, 77.500 80 C 77.344 78.075, 77.165 75.825, 77.103 75 C 77.018 73.855, 75.601 73.490, 71.126 73.457 C 67.900 73.433, 64.752 73.583, 64.130 73.790 M 120.500 75.189 C 115.861 77.930, 114.530 81.306, 116.195 86.112 C 118.581 93.002, 132.959 92.140, 134.345 85.024 C 134.934 81.993, 132.502 76.423, 130.173 75.471 C 126.940 74.150, 122.480 74.020, 120.500 75.189 M 139.480 96.850 C 133.587 98.746, 131.440 103.399, 133.797 109.164 C 135.599 113.574, 142.725 114.951, 147.733 111.856 C 152.585 108.857, 152.587 102.967, 147.738 98.750 C 144.549 95.977, 143.174 95.661, 139.480 96.850" stroke="none" fill="#653e9d" fill-rule="evenodd"/></svg>