<svg version="1.2" xmlns="http://www.w3.org/2000/svg" viewBox="0 0 664 320" width="664" height="320">
	<title>Games Company Logo</title>
	<style>
		.s0 { fill: #ffffff } 
	</style>
	<path id="Games Company" class="s0" aria-label="Games
Company"  d="m57.3 109.3q-25.5 0-39.5-13.8-14-13.8-14-39.5 0-25.5 14-39.3 14.1-13.9 39.5-13.9 10.2 0 19 2.1 8.8 2.1 14.7 6 1.3 0.9 1.3 1.9 0 0.7-0.5 1.8l-4.4 7.5q-0.9 1.4-1.8 1.4-0.5 0-2-0.8-10.1-5.7-24.3-5.7-17 0-26.8 9.8-9.7 9.6-9.7 29.2 0 19.8 9.4 29.4 9.5 9.6 26 9.6 5.9 0 11.6-0.9 5.8-1 9.3-2.8v-27.8h-19.8q-3 0-4.1-1.2-1.3-1.3-1.3-4.2l0.1-3.9q0-2.8 1.2-3.9 1.1-1.2 4.1-1.2h31.7q3.3 0 4.6 1.7 1.5 1.5 1.5 4.8v39.6q0 2.2-0.4 3.4-0.4 1.1-1.9 1.9-13.8 8.8-37.5 8.8zm83.6 0q-14.6 0-23.3-8.9-8.7-9-8.7-25.2 0-12.6 5.5-22.2 5.6-9.8 15.8-15 10.3-5.2 24-5.2 19 0 32.2 9v61.2q0 2.2-1 3.1-1 0.9-3.3 0.9h-8.3q-1.7 0-2.5-0.6-0.8-0.7-1.1-2.2l-1.2-5.9q-4.6 5.7-11.6 8.4-6.7 2.5-16.5 2.5zm7.3-13.6q7.9 0 13.9-4.6 6.2-4.7 6.2-12.3v-29.3q-3.2-1.7-6.5-2.2-3.1-0.8-7.8-0.8-11.8 0-19.1 7.5-7.1 7.5-7.1 20.7 0 10.8 4.9 15.9 5.1 5.1 15.5 5.1zm61.6 11.4q-3 0-4.4-1.3-1.3-1.4-1.3-4.1v-62.6q0-2.2 0.8-3.1 0.7-0.9 3.1-0.9h7.9q1.7 0 2.5 0.8 0.7 0.6 0.9 2.2l0.4 6.3q4.4-5.5 9.9-8.5 5.7-3 13.5-3 6.6 0 11.4 3 4.9 2.8 7.2 8.5 8.2-11.5 23.9-11.5 10.6 0 16.8 6.4 6.2 6.5 6.2 19.2v43.2q0 2.7-1.3 4.1-1.2 1.3-4.4 1.3h-6.5q-3 0-4.4-1.3-1.4-1.4-1.4-4.1v-42.1q0-6.9-3-9.9-2.8-3-8.7-3-6.1 0-10 4-3.8 4-3.8 11v40q0 2.7-1.3 4.1-1.4 1.3-4.4 1.3h-6.1q-3 0-4.4-1.3-1.3-1.4-1.3-4.1v-42.9q0-6.3-2.7-9.1-2.5-3-8.2-3-6.5 0-10.5 4.3-4.1 4.2-4.1 11.1v39.6q0 2.7-1.3 4.1-1.2 1.3-4.4 1.3zm154.6 2.2q-11.6 0-21.1-3.9-9.4-4-15.2-12.3-5.5-8.3-5.5-20.8 0-19.4 10.3-29.4 10.4-10.1 29.5-10.1 18.9 0 28.5 9.8 9.7 9.7 9.7 28.2 0 5.3-4.8 5.3l-55-0.1q0 9.9 6.8 15.3 7 5.3 19.3 5.3 11.8 0 21.2-5.4 1.1-0.6 1.7-0.6 1.1 0 1.6 1.3l3.7 6.5q0.4 0.9 0.4 1.6 0 1.1-1.4 2-6.1 3.8-13.3 5.5-7 1.8-16.4 1.8zm-23.6-44.4h42.4q0-9.3-5.3-14.5-5-5.3-15.4-5.3-10.5 0-16.2 5.4-5.5 5.4-5.5 14.4zm105.7 44.4q-9 0-17.6-1.8-8.5-1.9-14.6-5.7-2-1-2-2.2 0-0.9 0.6-1.7l4.2-7.3q0.7-1.3 1.5-1.3 0.7 0 2 0.7 4.5 2.7 11 4.5 6.7 1.8 12.2 1.8 8.5 0 12.1-1.7 3.8-1.8 3.8-6.3 0-2.5-1.5-4-1.4-1.7-4.2-2.9-2.9-1.1-9.4-3.3 0 0-5-1.6-8.5-2.8-13.7-5.6-5.1-2.6-7.9-6.7-2.7-4.2-2.7-10.5 0-10.2 8.5-15.4 8.8-5.5 22.5-5.5 16.8 0 29 7.2 2 1.1 2 2.3 0 0.7-0.8 2l-4.1 6.4q-0.9 1.3-1.5 1.3-0.6 0-1.8-0.7-3.8-2.4-9.4-3.8-5.4-1.5-10.9-1.5-7.5 0-11.2 1.7-3.4 1.5-3.4 6 0 3.9 4.1 6.1 4.1 2.3 14.3 5.5l5 1.5q11.7 3.7 16.3 8.8 4.9 5.1 4.9 12.7 0 9.3-8.3 15.2-8.1 5.8-24 5.8zm-389.3 180q-25.4 0-39.4-13.8-13.9-13.8-13.9-39.4 0-25.6 13.6-39.4 13.8-13.9 39.3-13.9 10.2 0 18.9 2.2 8.7 2 14.7 6 1.4 0.8 1.4 1.9 0 0.9-0.8 2.1l-4.2 7.2q-0.9 1.3-1.6 1.3-0.6 0-2.1-0.7-9.5-5.7-24.2-5.7-16.9 0-26.5 9.7-9.6 9.8-9.6 29.3 0 19.8 9.9 29.6 9.9 9.5 26.7 9.5 15.6 0 25.6-5.8 1.5-0.7 2-0.7 0.9 0 1.8 1.3l4.6 7.8q0.5 0.9 0.5 1.5 0 0.9-1.7 1.9-11.5 8.1-34.9 8.1zm82 0q-19.5 0-30.1-10.1-10.5-10.4-10.5-28.1 0-17.7 10.5-27.9 10.6-10.4 30.1-10.4 19.5 0 30.2 10.4 10.6 10.2 10.6 27.9 0 17.7-10.6 28.1-10.7 10.1-30.2 10.1zm0-14.1q10.7 0 16.2-6.1 5.6-6.1 5.6-18 0-11.7-5.6-17.7-5.5-6.2-16.2-6.2-10.5 0-16.2 6.2-5.5 6-5.5 17.7 0 11.7 5.5 18 5.7 6.1 16.2 6.1zm61.2 11.9q-3 0-4.4-1.4-1.3-1.3-1.3-4v-62.5q0-2.3 0.7-3.2 0.8-0.9 3.2-0.9h7.9q1.7 0 2.4 0.7 0.8 0.7 1 2.3l0.4 6.3q4.4-5.6 9.9-8.6 5.7-3 13.5-3 6.6 0 11.4 3 4.9 2.9 7.2 8.6 8.2-11.6 23.9-11.6 10.6 0 16.7 6.5 6.3 6.4 6.3 19.2v43.2q0 2.7-1.3 4-1.2 1.4-4.4 1.4h-6.6q-3 0-4.3-1.4-1.4-1.3-1.4-4v-42.2q0-6.8-3-9.8-2.8-3-8.7-3-6.1 0-10 4-3.8 4-3.8 11v40q0 2.7-1.3 4-1.4 1.4-4.4 1.4h-6.1q-3 0-4.4-1.4-1.3-1.3-1.3-4v-42.9q0-6.3-2.7-9.1-2.6-3-8.2-3-6.5 0-10.5 4.3-4.1 4.2-4.1 11.1v39.6q0 2.7-1.3 4-1.2 1.4-4.4 1.4zm121.3 30.3q-3 0-4.3-1.4-1.2-1.3-1.2-4v-89.7q5.7-4.1 15.1-6.8 9.7-2.7 19.2-2.7 43.5 0 43.5 38.5 0 17.7-9.6 27.9-9.4 10.1-26.1 10.1-15.1 0-23.2-8.6v31.3q0 2.8-1.4 4.2-1.2 1.2-4.3 1.2zm32.1-41.7q10.7 0 15.9-6.5 5.3-6.4 5.3-18.5 0-13.1-6.2-18.5-6.1-5.5-18.9-5.5-9.4 0-14.8 2.8v29.5q0 7.7 5.4 12.2 5.4 4.5 13.3 4.5zm80.3 13.6q-14.7 0-23.4-8.8-8.7-9-8.7-25.2 0-12.6 5.5-22.2 5.6-9.8 15.8-15 10.3-5.3 24-5.3 19 0 32.2 9v61.2q0 2.3-1 3.2-0.9 0.9-3.3 0.9h-8.3q-1.6 0-2.5-0.6-0.8-0.8-1.1-2.3l-1.2-5.8q-4.6 5.7-11.5 8.4-6.8 2.5-16.5 2.5zm7.2-13.6q7.9 0 13.9-4.7 6.2-4.6 6.2-12.3v-29.2q-3.2-1.7-6.5-2.3-3.1-0.7-7.8-0.7-11.8 0-19 7.5-7.2 7.5-7.2 20.7 0 10.8 4.9 15.9 5.1 5.1 15.5 5.1zm61.6 11.4q-3 0-4.3-1.4-1.4-1.3-1.4-4v-62.5q0-2.3 0.8-3.2 0.7-0.9 3.1-0.9h8.6q3.3 0 3.4 3l0.3 6q10.2-11.3 29.2-11.3 12.2 0 19.5 6.7 7.5 6.4 7.5 19.4v42.8q0 2.7-1.3 4-1.2 1.4-4.2 1.4h-8q-3 0-4.3-1.4-1.3-1.3-1.3-4v-41.5q0-7.4-3.5-10.4-3.3-3.1-10.8-3.1-7.9 0-13.9 4.3-5.9 4.2-5.9 10.9v39.8q0 2.7-1.3 4-1.2 1.4-4.4 1.4zm97.4 23.4q-5.8 0-10.5-1.6-4.8-1.7-8.3-4.5-1.2-1.1-1.2-2 0-0.9 0.6-1.7l4.2-7.2q0.9-1.5 1.8-1.5 0.8 0 1.8 1 2.4 1.7 4.8 2.7 2.5 0.8 6 0.8 4.5 0 7-2.8 2.6-3 5.3-9.9l-30.3-64.5q-0.6-1.5-0.6-2.1 0-2.1 2.4-2.1h12.7q2 0 2.9 0.6 0.9 0.6 1.6 2.3l20.2 47 20.1-47q0.7-1.7 1.6-2.3 0.9-0.6 2.9-0.6h12.7q2.4 0 2.4 2.1 0 0.6-0.6 2.1l-28.2 60.2q-5.8 12.2-9.9 18.5-3.9 6.4-9 9.5-4.9 3-12.4 3z"/>
</svg>